<svg width="51" height="63" viewBox="0 0 51 63" fill="none" xmlns="http://www.w3.org/2000/svg">
<path d="M3.28998 2.70999C3.08998 2.70999 3.61998 2.84999 3.28998 3.11999C3.70998 3.38999 3.49998 3.78999 3.28998 4.29999C3.29998 4.80999 3.45998 5.43999 3.28998 6.15999C3.35998 6.87999 3.35998 7.70999 3.28998 8.61999C3.29998 9.52999 3.05998 10.52 3.28998 11.59C3.39998 12.65 3.31998 13.79 3.28998 14.98C3.43998 16.18 3.28998 17.42 3.28998 18.72C3.05998 20.01 3.39998 21.35 3.28998 22.71C3.19998 24.08 3.43998 25.47 3.28998 26.88C3.40998 28.28 3.18998 29.71 3.28998 31.13C3.43998 32.55 3.07998 33.97 3.28998 35.38C3.21998 36.79 3.46998 38.18 3.28998 39.54C3.36998 40.9 3.36998 42.24 3.28998 43.53C3.31998 44.82 3.18998 46.07 3.28998 47.27C3.24998 48.47 3.03998 49.6 3.28998 50.67C3.33998 51.73 3.50998 52.73 3.28998 53.64C3.24998 54.1 3.25998 54.53 3.26998 54.94C3.27998 55.55 3.29998 55.74 3.28998 56.1C3.32998 56.59 3.27998 56.51 3.24998 57.11C3.21998 57.03 3.19998 57.63 3.28998 57.96C3.44998 58.35 3.24998 58.75 3.28998 59.14C3.18998 59.31 3.21998 59.52 3.28998 59.55C3.33998 59.69 3.49998 59.48 3.73998 59.55C4.00998 59.76 4.54998 59.44 4.99998 59.55C5.26998 59.35 5.56998 59.52 5.88998 59.55C6.20998 59.55 9.98998 59.64 10.37 59.55C10.75 59.35 11.15 59.45 11.57 59.55C11.99 59.55 12.43 59.86 12.9 59.55C13.25 59.76 13.6 59.35 13.97 59.46C14.34 59.37 14.71 59.26 15.1 59.55C15.48 59.76 15.88 59.79 16.28 59.61C16.68 59.36 17.09 59.67 17.51 59.55C17.92 59.45 18.34 59.48 18.77 59.62C19.2 59.85 19.63 59.66 20.07 59.55C20.51 59.5 20.95 59.35 21.39 59.64C21.83 59.72 22.28 59.8 22.73 59.55C23.18 59.31 23.63 59.48 24.08 59.47C24.53 59.55 24.99 59.76 25.44 59.55C25.89 59.47 26.35 59.71 26.8 59.52C27.25 59.63 27.7 59.31 28.15 59.55C28.6 59.46 29.05 59.61 29.49 59.55C29.93 59.57 30.38 59.8 30.81 59.55C31.25 59.51 31.68 59.71 32.11 59.57C32.54 59.61 32.96 59.6 33.38 59.55C33.69 59.74 33.99 59.64 34.29 59.56C34.59 59.57 34.89 59.61 35.18 59.55C35.47 59.7 35.76 59.7 36.05 59.56C36.33 59.56 36.61 59.36 36.89 59.55C37.18 59.45 37.48 59.45 37.77 59.44C38.06 59.62 38.34 59.54 38.6 59.55C39.12 59.79 39.58 59.59 39.91 59.55C40.37 59.6 40.77 59.47 41.15 59.55C41.53 59.28 45.32 59.73 45.68 59.55C45.93 59.62 46.27 59.39 46.57 59.55C46.87 59.76 47.13 59.31 47.22 59.55C47.36 59.74 47.77 59.58 47.77 59.55C47.75 59.6 47.96 59.35 47.77 59.14C47.84 58.93 47.82 58.42 47.77 57.96C47.61 57.61 47.64 57.1 47.7 57.11C47.75 56.61 47.83 56.29 47.77 56.1C47.75 55.74 47.73 55.35 47.72 54.94C47.72 54.53 47.72 54.1 47.77 53.64C47.62 52.73 47.87 51.73 47.77 50.67C47.85 49.6 47.7 48.47 47.77 47.27C47.7 46.08 47.64 44.83 47.77 43.53C47.98 42.24 48.1 40.9 47.77 39.54C47.71 38.18 47.9 36.78 47.77 35.38C47.43 33.97 47.63 32.55 47.77 31.13C47.77 29.71 47.77 28.29 47.77 26.88C47.65 25.47 47.87 24.08 47.77 22.71C47.79 21.35 47.9 20.01 47.77 18.72C48.03 17.43 47.73 16.18 47.77 14.98C47.84 13.79 47.76 12.65 47.77 11.59C47.69 10.52 47.66 9.52999 47.77 8.61999C47.79 8.15999 47.89 7.70999 47.94 7.31999C47.98 6.74999 47.97 6.51999 47.77 6.15999C47.86 5.81999 47.89 5.27999 47.88 5.14999C47.88 4.98999 47.83 5.04999 47.77 4.29999C47.98 4.21999 47.58 3.54999 47.77 3.11999C47.84 3.33999 47.87 2.41999 47.77 2.70999C47.57 2.91999 47.59 2.63999 47.22 2.70999C47.18 2.97999 47 2.61999 46.73 2.70999C46.46 2.86999 46.09 2.60999 45.69 2.70999C45.21 2.54999 41.4 2.70999 41.04 2.70999C40.67 2.70999 40.33 2.54999 39.91 2.70999C39.51 2.69999 39.03 2.83999 38.51 2.70999C38.25 2.87999 37.98 2.78999 37.71 2.76999C37.44 2.69999 37.16 2.74999 36.89 2.70999C36.5 2.70999 36.1 2.81999 35.7 2.87999C35.29 2.87999 34.88 2.70999 34.45 2.70999C34.03 2.56999 33.59 2.45999 33.16 2.50999C32.72 2.50999 32.28 2.48999 31.83 2.70999C31.38 2.78999 30.92 2.82999 30.46 2.65999C30 2.62999 29.54 2.55999 29.07 2.70999C28.6 2.75999 28.13 2.72999 27.66 2.74999C27.19 2.72999 26.71 2.68999 26.24 2.70999C25.76 2.64999 25.29 2.63999 24.82 2.64999C24.35 2.69999 23.87 2.69999 23.4 2.70999C22.93 2.57999 22.46 2.97999 21.99 2.85999C21.52 2.94999 21.06 2.83999 20.6 2.70999C20.14 2.73999 19.68 2.78999 19.24 2.73999C18.79 2.65999 18.34 2.48999 17.91 2.70999C17.47 2.67999 17.04 2.65999 16.62 2.67999C16.2 2.49999 15.78 2.70999 15.38 2.70999C14.98 2.57999 14.58 2.80999 14.19 2.75999C13.8 2.67999 13.43 2.64999 13.06 2.70999C12.59 2.78999 12.12 2.62999 11.68 2.70999C11.24 2.57999 10.83 2.59999 10.49 2.70999C10.06 2.62999 6.31998 2.68999 6.01998 2.70999C5.71998 2.67999 5.43998 2.67999 5.07998 2.70999C4.41998 2.64999 4.38998 2.70999 3.79998 2.70999H3.33998H3.28998ZM0.729977 60.82C0.779977 60.77 0.789977 60.59 0.729977 60.43C0.709977 60.36 0.709977 59.64 0.729977 59.31C0.589977 59.18 0.629977 58.8 0.679977 58.5C0.729977 58.22 0.799977 57.91 0.729977 57.53C0.599977 57.01 0.599977 56.74 0.629977 56.42C0.659977 56.1 0.729977 55.74 0.729977 55.18C0.719977 54.68 0.729977 54.29 0.739977 53.81C0.749977 53.34 0.759977 52.84 0.729977 52.33C0.839977 51.3 0.669977 50.21 0.729977 49.05C0.729977 47.9 0.599977 46.68 0.729977 45.43C0.749977 44.17 0.779977 42.87 0.729977 41.54C0.799977 40.21 0.889977 38.84 0.729977 37.45C0.699977 36.07 1.13998 34.66 0.729977 33.25C0.519977 31.84 0.339977 30.42 0.729977 29.01C0.429977 27.6 0.589977 26.2 0.729977 24.81C0.559977 23.43 0.729977 22.06 0.729977 20.73C0.889977 19.4 0.609977 18.1 0.729977 16.84C0.729977 15.58 0.879977 14.37 0.729977 13.22C0.619977 12.07 0.849977 10.97 0.729977 9.94999C0.819977 8.91999 0.729977 7.96999 0.729977 7.09999C0.989977 6.22999 0.859977 5.43999 0.729977 4.74999C0.549977 4.05999 0.659977 3.45999 0.729977 2.97999C0.789977 2.48999 1.04998 2.10999 0.729977 1.85999C0.639977 1.60999 0.419977 1.46999 0.729977 1.46999C0.699977 1.11999 0.929977 0.79999 1.10998 0.56999C1.40998 0.33999 1.89998 0.18999 2.01998 0.18999H3.53998C3.76998 0.13999 4.04998 0.23999 4.35998 0.18999C4.65998 0.05999 4.97998 0.11999 5.29998 0.18999C5.64998 0.05999 9.43998 0.26999 9.81998 0.18999C10.21 -0.01001 10.61 0.18999 11 0.18999C11.42 -0.09001 11.86 0.08999 12.32 0.18999C12.78 0.05999 13.25 0.23999 13.73 0.18999C14.09 0.19999 14.47 0.21999 14.84 0.23999C15.22 0.35999 15.61 0.19999 16 0.18999C16.39 0.10999 16.79 0.41999 17.2 0.21999C17.6 0.33999 18.01 0.24999 18.43 0.18999C18.84 0.35999 19.27 0.16999 19.69 0.23999C20.11 0.19999 20.54 0.23999 20.97 0.18999C21.4 0.05999 21.83 0.13999 22.27 0.11999C22.71 0.02999 23.14 0.16999 23.58 0.18999C24.02 0.20999 24.46 -0.04001 24.9 0.16999C25.34 0.10999 25.78 0.18999 26.22 0.18999C26.66 -0.02001 27.1 0.19999 27.54 0.27999C27.98 0.18999 28.42 0.31999 28.85 0.18999C29.29 0.01999 29.72 0.07999 30.15 0.13999C30.58 0.30999 31.01 0.12999 31.43 0.18999C31.85 0.31999 32.27 0.27999 32.69 0.24999C33.1 0.18999 33.51 0.24999 33.92 0.18999C34.25 0.18999 34.58 0.10999 34.9 0.11999C35.22 0.09999 35.54 0.12999 35.85 0.18999C36.16 0.23999 36.47 0.30999 36.77 0.29999C37.07 0.32999 37.37 0.29999 37.66 0.18999C37.91 0.30999 38.18 0.26999 38.46 0.14999C38.75 0.11999 39.04 0.04999 39.33 0.18999C39.62 0.18999 39.91 0.14999 40.17 0.10999C40.43 0.13999 40.68 0.05999 40.88 0.18999C41.3 0.15999 45.22 -0.02001 45.68 0.18999C46.14 0.05999 46.56 0.49999 46.82 0.18999C47.14 0.39999 47.5 0.15999 47.81 0.18999C48.12 0.18999 48.37 -0.04001 48.46 0.18999C48.92 0.79999 49.04 0.09999 49.05 0.18999C49.19 0.44999 49.74 0.44999 49.96 0.56999C50.03 0.73999 50.51 1.08999 50.34 1.46999C50.1 1.32999 50.14 1.61999 50.34 1.85999C50.48 2.06999 50.11 2.69999 50.34 2.97999C50.48 3.71999 50.51 3.63999 50.49 3.78999C50.47 3.69999 50.4 4.37999 50.34 4.74999C50.24 4.89999 50.27 5.33999 50.31 5.85999C50.35 6.14999 50.4 6.68999 50.34 7.10999C50.27 7.76999 50.26 7.99999 50.28 8.47999C50.3 8.95999 50.34 9.44999 50.34 9.96999C50.27 10.99 50.48 12.09 50.34 13.24C50.27 14.39 50.06 15.61 50.34 16.86C50.07 18.12 50.17 19.42 50.34 20.75C50.27 22.08 50.22 23.45 50.34 24.83C50.45 26.22 50.52 27.62 50.34 29.03C50.28 30.44 50.29 31.86 50.34 33.27C50.25 34.68 50.51 36.09 50.34 37.47C50.27 38.85 50.4 40.22 50.34 41.55C50.36 42.88 50.38 44.19 50.34 45.44C50.2 46.69 50.45 47.91 50.34 49.06C50.49 50.21 50.34 51.31 50.34 52.34C50.37 53.37 50.59 54.32 50.34 55.19C50.23 55.62 50.18 56.04 50.18 56.43C50.18 56.84 50.24 57.15 50.34 57.54C50.29 58.27 50.35 58.12 50.4 58.5C50.45 58.87 50.48 58.83 50.34 59.31C50.24 59.71 50.6 60.28 50.34 60.43C50.09 60.48 50.43 61.31 50.34 60.82C50.31 61.14 50.29 61.67 49.96 61.73C49.98 61.97 49.19 62.09 49.05 62.1C49.03 62.35 48.85 62.13 48.46 62.1C48.37 62.07 48.16 62.32 47.87 62.1C47.58 62.47 47.21 61.95 46.83 62.1C46.56 62.02 46.14 62.01 45.68 62.1C45.22 62.2 41.3 62 40.89 62.1C40.59 62.06 40.33 62.1 40.08 62.1C39.83 62.07 39.59 62.18 39.35 62.1C39.11 62.08 38.86 62.02 38.59 62.12C38.32 62.2 38.02 62.05 37.67 62.1C37.38 62.13 37.08 61.89 36.78 62.04C36.48 62.11 36.17 62.16 35.86 62.1C35.55 62.22 35.23 61.89 34.91 62.03C34.59 62.02 34.26 62.18 33.93 62.1C33.53 62.22 33.12 62.06 32.7 62.05C32.29 62.05 31.86 61.82 31.44 62.1C31.02 62.09 30.59 62.06 30.16 62.1C29.73 62.09 29.3 61.89 28.86 62.1C28.43 62.11 27.99 62.2 27.55 62.14C27.11 62.04 26.67 62.16 26.23 62.1C25.79 62.31 25.35 62.05 24.91 62.1C24.47 62.13 24.03 62.26 23.59 62.1C23.15 62.02 22.71 61.93 22.28 62.02C21.84 62.13 21.41 62.29 20.98 62.1C20.55 62.31 20.12 62.19 19.7 62.14C19.28 62.18 18.86 62.23 18.44 62.1C18.03 62.14 17.61 62.28 17.21 62.13C16.8 62.11 16.4 62.06 16.01 62.1C15.62 62.17 15.23 62.23 14.85 62.12C14.47 62.17 14.1 61.88 13.74 62.1C13.25 61.98 12.78 62.21 12.33 62.1C11.88 61.87 11.43 62.03 11.01 62.1C10.6 61.98 10.19 62.1 9.79998 62.1C9.40998 61.86 5.61998 61.88 5.29998 62.1C5.02998 62.1 4.74998 62.5 4.44998 62.1C4.15998 61.91 3.84998 62.1 3.53998 62.1C2.95998 62.2 2.70998 61.94 2.41998 62.1C2.01998 62.09 2.17998 61.96 2.02998 62.1C1.58998 61.97 1.18998 62.22 1.11998 61.73C0.829977 61.55 0.449977 61.3 0.739977 60.82" fill="#324658"/>
<path d="M17.76 22.26C19.04 22.3 20.21 22.26 21.56 22.26C22.24 21.87 23.1 21.91 23.78 21.63C24.35 21.39 24.71 20.85 25.26 20.68C25.66 19.73 26.15 18.57 26.1 17.3C26.07 16.35 25.58 15.49 25.47 14.66C25.15 14.42 24.86 14.14 24.63 13.81C23.83 13.6 22.9 13.03 21.78 12.86C20.52 12.67 18.94 12.75 17.87 12.86C17.46 12.91 17.01 12.74 16.71 13.07C16.41 14.27 16.6 15.58 16.61 16.66C16.61 17.01 16.5 17.39 16.5 17.72C16.5 18.87 16.51 19.98 16.61 20.99C16.65 21.38 16.49 21.85 16.82 22.15C17.11 22.43 17.39 22.24 17.77 22.26M16.61 25.32C16.27 25.66 16.53 27.07 16.5 27.6C16.44 28.91 16.11 31.12 16.82 32.14C17.4 32.41 18.44 32.21 18.93 32.56C19.19 33.23 19.33 34.35 19.04 34.99C18.38 35.42 17.56 35.23 16.71 35.2C14.92 35.14 12.93 35.37 11.32 35.1C11.05 34.72 11.13 34.25 11.21 33.73C11.1 33.3 11.04 32.76 11.32 32.46C11.85 32.02 12.7 32.5 13.22 32.14C13.69 31.63 13.42 30.96 13.43 30.35C13.45 29.34 13.56 28.26 13.54 27.18C13.51 25.76 13.32 23.39 13.33 21.95C13.33 21.46 13.44 21.04 13.43 20.58C13.4 18.3 13.38 15.56 13.33 13.29C13.01 12.77 12 12.93 11.43 12.66C11.13 12.1 11.15 10.82 11.32 10.13C11.86 9.77 12.59 9.96 13.22 9.92C13.38 9.91 13.41 9.81 13.54 9.81C14.1 9.81 14.66 10.01 15.23 10.02C15.96 10.04 16.72 9.81 17.45 9.81C18.1 9.81 18.72 9.94 19.35 9.92C20.52 9.88 21.38 9.86 22.52 10.03C23.02 10.1 23.52 10.12 23.89 10.24C24.4 10.41 24.72 10.85 25.16 11.08C25.53 11.28 25.9 11.26 26.22 11.5C26.66 11.55 26.71 12 27.06 12.13C27.29 12.31 27.67 12.49 27.9 12.76C27.97 12.85 27.93 13 28.01 13.08C28.24 13.33 28.43 13.78 28.64 14.35C28.97 15.22 29.12 15.85 29.17 17.31C29.2 18.19 29.23 19.09 29.07 19.74C28.96 20.16 28.53 20.72 28.33 21.22C28.18 21.6 28.15 21.97 27.8 22.28C27.66 22.4 27.43 22.4 27.27 22.6C27.06 22.9 26.8 23.24 26.53 23.44C26.27 23.65 25.84 23.76 25.47 23.97C25.14 24.16 24.84 24.47 24.52 24.6C24.38 24.66 24.09 24.65 23.89 24.71C23.54 24.81 22.88 25.07 22.3 25.13C21.12 25.25 19.44 25.04 18.5 25.13C17.92 25.18 17.21 25.06 16.6 25.34" fill="#324658"/>
<path d="M38.98 27.78C39.58 28.29 39.37 29.27 39.4 30.21C39.43 31.2 39.57 32.64 39.19 33.59C38.61 33.74 37.44 33.78 36.87 33.59C36.31 33.06 36.56 31.72 36.34 30.85C35.79 30.44 35.08 30.72 34.44 30.74C33.86 30.77 33.24 30.74 32.64 30.74C31.37 30.74 29.49 30.66 27.89 30.85C27.45 31.28 27.59 31.95 27.57 32.64C27.56 33.27 27.57 34.05 27.57 34.75C27.57 36.14 27.54 37.61 27.57 38.66C28 39.2 28.75 38.87 29.47 38.87C30.5 38.87 31.69 39.16 32.64 38.87C33.33 39.07 34.46 39.16 35.49 39.19C36.09 39.2 36.68 38.9 37.08 39.29C37.43 39.86 37.18 40.98 37.08 41.72C36.21 42.15 35.04 41.94 33.7 41.93C31.82 41.93 29.5 41.85 27.68 42.04C27.25 42.71 27.84 43.94 27.36 44.68C27.71 46.05 27.18 47.49 27.57 49.01C27.99 49.47 29.31 49.03 29.89 49.33C30.32 49.82 30.33 51.35 30 51.97C29.49 52.46 28.74 52.12 27.99 52.08C27.76 52.07 27.72 52.18 27.57 52.19C27.34 52.2 27.29 52.08 27.15 52.08C26.46 52.1 25.32 52.15 24.41 52.19C23.65 52.22 22.88 52.45 22.3 51.98C21.88 51.35 22.1 50 22.4 49.44C22.79 49.17 23.59 49.3 24.09 49.12C24.78 48.36 24.48 47.25 24.51 46.27C24.55 44.94 24.47 43.28 24.51 41.62C24.51 41.45 24.63 41.28 24.62 41.09C24.58 40.48 24.53 39.31 24.51 38.45C24.46 36.14 24.56 33.6 24.41 31.16C23.99 30.63 22.87 30.8 22.3 30.42C22.2 29.76 22.09 28.73 22.3 28.1C24.13 27.45 26.38 27.96 28.32 27.78C29.09 27.71 30.47 27.71 31.49 27.67C31.79 27.66 32.12 27.78 32.44 27.78C33.71 27.76 35.76 27.71 37.09 27.67C37.72 27.66 38.38 27.6 38.99 27.78" fill="#324658"/>
</svg>
