<svg width="33" height="40" viewBox="0 0 33 40" fill="none" xmlns="http://www.w3.org/2000/svg">
<path d="M2.39829 1.72073C2.27131 1.72073 2.60781 1.80961 2.39829 1.98104C2.66496 2.15247 2.53162 2.40644 2.39829 2.73025C2.40464 3.05406 2.50623 3.45406 2.39829 3.9112C2.44273 4.36834 2.44273 4.89533 2.39829 5.47311C2.40464 6.05088 2.25226 6.67946 2.39829 7.35882C2.46813 8.03184 2.41734 8.75565 2.39829 9.5112C2.49353 10.2731 2.39829 11.0604 2.39829 11.8858C2.25226 12.7049 2.46813 13.5556 2.39829 14.4191C2.34115 15.289 2.49353 16.1715 2.39829 17.0668C2.47448 17.9556 2.3348 18.8636 2.39829 19.7652C2.49353 20.6668 2.26496 21.5683 2.39829 22.4636C2.35385 23.3588 2.51258 24.2414 2.39829 25.1049C2.44908 25.9683 2.44908 26.8191 2.39829 27.6382C2.41734 28.4572 2.3348 29.2509 2.39829 30.0128C2.37289 30.7747 2.23956 31.4922 2.39829 32.1715C2.43004 32.8445 2.53797 33.4795 2.39829 34.0572C2.37289 34.3493 2.37924 34.6223 2.38559 34.8826C2.39194 35.2699 2.40464 35.3906 2.39829 35.6191C2.42369 35.9302 2.39194 35.8795 2.37289 36.2604C2.35385 36.2096 2.34115 36.5906 2.39829 36.8001C2.49988 37.0477 2.37289 37.3017 2.39829 37.5493C2.3348 37.6572 2.35385 37.7906 2.39829 37.8096C2.43004 37.8985 2.53162 37.7652 2.684 37.8096C2.85543 37.9429 3.19829 37.7398 3.484 37.8096C3.65543 37.6826 3.84591 37.7906 4.04908 37.8096C4.25226 37.8096 6.65226 37.8668 6.89353 37.8096C7.1348 37.6826 7.38877 37.7461 7.65543 37.8096C7.9221 37.8096 8.20147 38.0064 8.49988 37.8096C8.7221 37.9429 8.94432 37.6826 9.17924 37.7525C9.41417 37.6953 9.64909 37.6255 9.89671 37.8096C10.138 37.9429 10.3919 37.962 10.6459 37.8477C10.8999 37.689 11.1602 37.8858 11.4269 37.8096C11.6872 37.7461 11.9538 37.7652 12.2269 37.8541C12.4999 38.0001 12.7729 37.8795 13.0523 37.8096C13.3316 37.7779 13.611 37.6826 13.8904 37.8668C14.1697 37.9175 14.4554 37.9683 14.7412 37.8096C15.0269 37.6572 15.3126 37.7652 15.5983 37.7588C15.884 37.8096 16.1761 37.9429 16.4618 37.8096C16.7475 37.7588 17.0396 37.9112 17.3253 37.7906C17.611 37.8604 17.8967 37.6572 18.1824 37.8096C18.4681 37.7525 18.7539 37.8477 19.0332 37.8096C19.3126 37.8223 19.5983 37.9683 19.8713 37.8096C20.1507 37.7842 20.4237 37.9112 20.6967 37.8223C20.9697 37.8477 21.2364 37.8414 21.5031 37.8096C21.6999 37.9302 21.8904 37.8668 22.0808 37.816C22.2713 37.8223 22.4618 37.8477 22.6459 37.8096C22.83 37.9049 23.0142 37.9049 23.1983 37.816C23.3761 37.816 23.5539 37.689 23.7316 37.8096C23.9158 37.7461 24.1062 37.7461 24.2904 37.7398C24.4745 37.8541 24.6523 37.8033 24.8173 37.8096C25.1475 37.962 25.4396 37.835 25.6491 37.8096C25.9412 37.8414 26.1951 37.7588 26.4364 37.8096C26.6777 37.6382 29.084 37.9239 29.3126 37.8096C29.4713 37.8541 29.6872 37.708 29.8777 37.8096C30.0681 37.9429 30.2332 37.6572 30.2904 37.8096C30.3793 37.9302 30.6396 37.8287 30.6396 37.8096C30.6269 37.8414 30.7602 37.6826 30.6396 37.5493C30.684 37.416 30.6713 37.0922 30.6396 36.8001C30.538 36.5779 30.557 36.2541 30.5951 36.2604C30.6269 35.9429 30.6777 35.7398 30.6396 35.6191C30.6269 35.3906 30.6142 35.1429 30.6078 34.8826C30.6078 34.6223 30.6078 34.3493 30.6396 34.0572C30.5443 33.4795 30.7031 32.8445 30.6396 32.1715C30.6904 31.4922 30.5951 30.7747 30.6396 30.0128C30.5951 29.2572 30.557 28.4636 30.6396 27.6382C30.7729 26.8191 30.8491 25.9683 30.6396 25.1049C30.6015 24.2414 30.7221 23.3525 30.6396 22.4636C30.4237 21.5683 30.5507 20.6668 30.6396 19.7652C30.6396 18.8636 30.6396 17.962 30.6396 17.0668C30.5634 16.1715 30.7031 15.289 30.6396 14.4191C30.6523 13.5556 30.7221 12.7049 30.6396 11.8858C30.8046 11.0668 30.6142 10.2731 30.6396 9.5112C30.684 8.75565 30.6332 8.03184 30.6396 7.35882C30.5888 6.67946 30.5697 6.05088 30.6396 5.47311C30.6523 5.18104 30.7158 4.89533 30.7475 4.64771C30.7729 4.28581 30.7666 4.13977 30.6396 3.9112C30.6967 3.69533 30.7158 3.35247 30.7094 3.26993C30.7094 3.16834 30.6777 3.20644 30.6396 2.73025C30.7729 2.67946 30.5189 2.25406 30.6396 1.98104C30.684 2.12073 30.7031 1.5366 30.6396 1.72073C30.5126 1.85406 30.5253 1.67628 30.2904 1.72073C30.265 1.89215 30.1507 1.66358 29.9793 1.72073C29.8078 1.82231 29.5729 1.65723 29.3189 1.72073C29.0142 1.61914 26.5951 1.72073 26.3666 1.72073C26.1316 1.72073 25.9158 1.61914 25.6491 1.72073C25.3951 1.71438 25.0904 1.80327 24.7602 1.72073C24.5951 1.82866 24.4237 1.77152 24.2523 1.75882C24.0808 1.71438 23.9031 1.74612 23.7316 1.72073C23.484 1.72073 23.23 1.79057 22.9761 1.82866C22.7158 1.82866 22.4554 1.72073 22.1824 1.72073C21.9158 1.63184 21.6364 1.562 21.3634 1.59374C21.084 1.59374 20.8046 1.58104 20.5189 1.72073C20.2332 1.77152 19.9412 1.79692 19.6491 1.68898C19.357 1.66993 19.065 1.62549 18.7666 1.72073C18.4681 1.75247 18.1697 1.73342 17.8713 1.74612C17.5729 1.73342 17.2681 1.70803 16.9697 1.72073C16.665 1.68263 16.3665 1.67628 16.0681 1.68263C15.7697 1.71438 15.465 1.71438 15.1665 1.72073C14.8681 1.63819 14.5697 1.89215 14.2713 1.81596C13.9729 1.87311 13.6808 1.80327 13.3888 1.72073C13.0967 1.73977 12.8046 1.77152 12.5253 1.73977C12.2396 1.68898 11.9538 1.58104 11.6808 1.72073C11.4015 1.70168 11.1285 1.68898 10.8618 1.70168C10.5951 1.58739 10.3285 1.72073 10.0745 1.72073C9.82051 1.63819 9.56655 1.78422 9.31893 1.75247C9.07131 1.70168 8.83639 1.68263 8.60147 1.72073C8.30305 1.77152 8.00464 1.66993 7.72528 1.72073C7.44591 1.63819 7.18559 1.65088 6.96972 1.72073C6.6967 1.66993 4.3221 1.70803 4.13162 1.72073C3.94115 1.70168 3.76337 1.70168 3.5348 1.72073C3.11575 1.68263 3.0967 1.72073 2.7221 1.72073H2.43004H2.39829ZM0.772893 38.616C0.804639 38.5842 0.810988 38.4699 0.772893 38.3683C0.760194 38.3239 0.760194 37.8668 0.772893 37.6572C0.684004 37.5747 0.709401 37.3334 0.741147 37.1429C0.772893 36.9652 0.817337 36.7683 0.772893 36.5271C0.690353 36.1969 0.690353 36.0255 0.709401 35.8223C0.728448 35.6191 0.772893 35.3906 0.772893 35.035C0.766544 34.7176 0.772893 34.4699 0.779242 34.1652C0.785591 33.8668 0.791941 33.5493 0.772893 33.2255C0.842734 32.5715 0.734798 31.8795 0.772893 31.1429C0.772893 30.4128 0.690353 29.6382 0.772893 28.8445C0.785591 28.0445 0.804639 27.2191 0.772893 26.3747C0.817337 25.5303 0.87448 24.6604 0.772893 23.7779C0.753845 22.9017 1.03321 22.0064 0.772893 21.1112C0.63956 20.216 0.525274 19.3144 0.772893 18.4191C0.582417 17.5239 0.684004 16.635 0.772893 15.7525C0.664956 14.8763 0.772893 14.0064 0.772893 13.162C0.87448 12.3176 0.696702 11.4922 0.772893 10.6922C0.772893 9.89215 0.868131 9.1239 0.772893 8.39374C0.703052 7.66358 0.849083 6.96517 0.772893 6.31755C0.830036 5.66358 0.772893 5.06041 0.772893 4.50803C0.937972 3.95565 0.855433 3.45406 0.772893 3.01596C0.658607 2.57787 0.728448 2.19692 0.772893 1.89215C0.810988 1.58104 0.976068 1.33977 0.772893 1.18104C0.71575 1.02231 0.576067 0.933424 0.772893 0.933424C0.753845 0.711202 0.899877 0.508027 1.01416 0.361995C1.20464 0.215964 1.51575 0.120725 1.59194 0.120725H2.55702C2.70305 0.0889794 2.88083 0.152471 3.07766 0.120725C3.26813 0.0381858 3.47131 0.076281 3.67448 0.120725C3.8967 0.0381858 6.30305 0.171519 6.54432 0.120725C6.79194 -0.00625867 7.04591 0.120725 7.29353 0.120725C7.5602 -0.0570523 7.83956 0.0572334 8.13163 0.120725C8.42369 0.0381858 8.7221 0.152471 9.02686 0.120725C9.25543 0.127075 9.49671 0.139773 9.73163 0.152471C9.9729 0.228662 10.2205 0.127075 10.4681 0.120725C10.7158 0.0699318 10.9697 0.266757 11.23 0.139773C11.484 0.215964 11.7443 0.158821 12.011 0.120725C12.2713 0.228662 12.5443 0.108027 12.811 0.152471C13.0777 0.127075 13.3507 0.152471 13.6237 0.120725C13.8967 0.0381858 14.1697 0.0889794 14.4491 0.076281C14.7285 0.0191382 15.0015 0.108027 15.2808 0.120725C15.5602 0.133424 15.8396 -0.0253063 16.1189 0.108027C16.3983 0.0699318 16.6777 0.120725 16.957 0.120725C17.2364 -0.0126079 17.5158 0.127075 17.7951 0.177868C18.0745 0.120725 18.3539 0.203265 18.6269 0.120725C18.9062 0.012789 19.1792 0.0508842 19.4523 0.0889794C19.7253 0.196916 19.9983 0.0826302 20.265 0.120725C20.5316 0.203265 20.7983 0.177868 21.065 0.158821C21.3253 0.120725 21.5856 0.158821 21.8459 0.120725C22.0554 0.120725 22.265 0.0699318 22.4681 0.076281C22.6713 0.0635826 22.8745 0.0826302 23.0713 0.120725C23.2681 0.152471 23.465 0.196916 23.6554 0.190567C23.8459 0.209614 24.0364 0.190567 24.2205 0.120725C24.3792 0.196916 24.5507 0.171519 24.7285 0.0953287C24.9126 0.076281 25.0967 0.0318366 25.2808 0.120725C25.465 0.120725 25.6491 0.0953286 25.8142 0.0699318C25.9792 0.0889794 26.138 0.0381858 26.265 0.120725C26.5316 0.101678 29.0205 -0.0126079 29.3126 0.120725C29.6046 0.0381858 29.8713 0.317551 30.0364 0.120725C30.2396 0.254059 30.4681 0.101678 30.665 0.120725C30.8618 0.120725 31.0205 -0.0253063 31.0777 0.120725C31.3697 0.508027 31.4459 0.0635826 31.4523 0.120725C31.5412 0.285805 31.8904 0.285805 32.03 0.361995C32.0745 0.469932 32.3793 0.692154 32.2713 0.933424C32.1189 0.844535 32.1443 1.02866 32.2713 1.18104C32.3602 1.31438 32.1253 1.71438 32.2713 1.89215C32.3602 2.362 32.3793 2.3112 32.3666 2.40644C32.3539 2.3493 32.3094 2.78104 32.2713 3.01596C32.2078 3.1112 32.2269 3.39057 32.2523 3.72073C32.2777 3.90485 32.3094 4.24771 32.2713 4.51438C32.2269 4.93342 32.2205 5.07946 32.2332 5.38422C32.2459 5.68898 32.2713 6.00009 32.2713 6.33025C32.2269 6.97787 32.3602 7.67628 32.2713 8.40644C32.2269 9.1366 32.0935 9.9112 32.2713 10.7049C32.0999 11.5049 32.1634 12.3302 32.2713 13.1747C32.2269 14.0191 32.1951 14.889 32.2713 15.7652C32.3412 16.6477 32.3856 17.5366 32.2713 18.4318C32.2332 19.3271 32.2396 20.2287 32.2713 21.1239C32.2142 22.0191 32.3793 22.9144 32.2713 23.7906C32.2269 24.6668 32.3094 25.5366 32.2713 26.381C32.284 27.2255 32.2967 28.0572 32.2713 28.8509C32.1824 29.6445 32.3412 30.4191 32.2713 31.1493C32.3666 31.8795 32.2713 32.5779 32.2713 33.2318C32.2904 33.8858 32.43 34.489 32.2713 35.0414C32.2015 35.3144 32.1697 35.581 32.1697 35.8287C32.1697 36.089 32.2078 36.2858 32.2713 36.5334C32.2396 36.9969 32.2777 36.9017 32.3094 37.1429C32.3412 37.3779 32.3602 37.3525 32.2713 37.6572C32.2078 37.9112 32.4364 38.2731 32.2713 38.3683C32.1126 38.4001 32.3285 38.9271 32.2713 38.616C32.2523 38.8191 32.2396 39.1556 32.03 39.1937C32.0427 39.3461 31.5412 39.4223 31.4523 39.4287C31.4396 39.5874 31.3253 39.4477 31.0777 39.4287C31.0205 39.4096 30.8872 39.5683 30.7031 39.4287C30.5189 39.6636 30.284 39.3334 30.0427 39.4287C29.8713 39.3779 29.6046 39.3715 29.3126 39.4287C29.0205 39.4922 26.5316 39.3652 26.2713 39.4287C26.0808 39.4033 25.9158 39.4287 25.757 39.4287C25.5983 39.4096 25.4459 39.4795 25.2935 39.4287C25.1412 39.416 24.9824 39.3779 24.811 39.4414C24.6396 39.4922 24.4491 39.3969 24.2269 39.4287C24.0427 39.4477 23.8523 39.2953 23.6618 39.3906C23.4713 39.435 23.2745 39.4668 23.0777 39.4287C22.8808 39.5049 22.6777 39.2953 22.4745 39.3842C22.2713 39.3779 22.0618 39.4795 21.8523 39.4287C21.5983 39.5049 21.338 39.4033 21.0713 39.3969C20.811 39.3969 20.538 39.2509 20.2713 39.4287C20.0046 39.4223 19.7316 39.4033 19.4586 39.4287C19.1856 39.4223 18.9126 39.2953 18.6332 39.4287C18.3602 39.435 18.0808 39.4922 17.8015 39.4541C17.5221 39.3906 17.2427 39.4668 16.9634 39.4287C16.684 39.562 16.4046 39.3969 16.1253 39.4287C15.8459 39.4477 15.5665 39.5303 15.2872 39.4287C15.0078 39.3779 14.7285 39.3207 14.4554 39.3779C14.1761 39.4477 13.9031 39.5493 13.63 39.4287C13.357 39.562 13.084 39.4858 12.8173 39.4541C12.5507 39.4795 12.284 39.5112 12.0173 39.4287C11.757 39.4541 11.4904 39.5429 11.2364 39.4477C10.9761 39.435 10.7221 39.4033 10.4745 39.4287C10.2269 39.4731 9.97925 39.5112 9.73798 39.4414C9.49671 39.4731 9.26178 39.289 9.03321 39.4287C8.7221 39.3525 8.42369 39.4985 8.13797 39.4287C7.85226 39.2826 7.56655 39.3842 7.29988 39.4287C7.03956 39.3525 6.77924 39.4287 6.53162 39.4287C6.28401 39.2763 3.87766 39.289 3.67448 39.4287C3.50305 39.4287 3.32527 39.6826 3.1348 39.4287C2.95067 39.308 2.75385 39.4287 2.55702 39.4287C2.18877 39.4922 2.03004 39.3271 1.84591 39.4287C1.59194 39.4223 1.69353 39.3398 1.59829 39.4287C1.31892 39.3461 1.06496 39.5049 1.02051 39.1937C0.836385 39.0795 0.595115 38.9207 0.779242 38.616" fill="white"/>
<path d="M11.5857 14.1333C12.3984 14.1587 13.1413 14.1333 13.9984 14.1333C14.4302 13.8857 14.9762 13.9111 15.4079 13.7333C15.7698 13.5809 15.9984 13.238 16.3476 13.1301C16.6016 12.5269 16.9127 11.7904 16.8809 10.9841C16.8619 10.3809 16.5508 9.83486 16.4809 9.30788C16.2778 9.1555 16.0936 8.97772 15.9476 8.7682C15.4397 8.63486 14.8492 8.27296 14.1381 8.16502C13.3381 8.04439 12.3349 8.09518 11.6556 8.16502C11.3952 8.19677 11.1095 8.08883 10.919 8.29836C10.7286 9.06026 10.8492 9.89201 10.8555 10.5777C10.8555 10.7999 10.7857 11.0412 10.7857 11.2507C10.7857 11.9809 10.7921 12.6857 10.8555 13.3269C10.8809 13.5745 10.7794 13.873 10.9889 14.0634C11.173 14.2412 11.3508 14.1206 11.5921 14.1333M10.8555 16.0761C10.6397 16.292 10.8048 17.1872 10.7857 17.5238C10.7476 18.3555 10.5381 19.7587 10.9889 20.4063C11.3571 20.5777 12.0175 20.4507 12.3286 20.673C12.4936 21.0984 12.5825 21.8095 12.3984 22.2158C11.9794 22.4888 11.4587 22.3682 10.919 22.3491C9.78253 22.3111 8.51904 22.4571 7.49682 22.2857C7.32539 22.0444 7.37618 21.746 7.42698 21.4158C7.35714 21.1428 7.31904 20.7999 7.49682 20.6095C7.83333 20.3301 8.37301 20.6349 8.70317 20.4063C9.00158 20.0825 8.83015 19.6571 8.8365 19.2698C8.8492 18.6285 8.91904 17.9428 8.90634 17.2571C8.88729 16.3555 8.76666 14.8507 8.77301 13.9365C8.77301 13.6253 8.84285 13.3587 8.8365 13.0666C8.81745 11.619 8.80475 9.87931 8.77301 8.43804C8.56983 8.10788 7.92856 8.20947 7.56666 8.03804C7.37618 7.68248 7.38888 6.86979 7.49682 6.43169C7.83968 6.20312 8.30317 6.32375 8.70317 6.29836C8.80476 6.29201 8.8238 6.22852 8.90634 6.22852C9.2619 6.22852 9.61745 6.3555 9.97936 6.36185C10.4429 6.37455 10.9254 6.22852 11.3889 6.22852C11.8016 6.22852 12.1952 6.31106 12.5952 6.29836C13.3381 6.27296 13.8841 6.26026 14.6079 6.3682C14.9254 6.41264 15.2429 6.42534 15.4778 6.50153C15.8016 6.60947 16.0048 6.88883 16.2841 7.03486C16.519 7.16185 16.754 7.14915 16.9571 7.30153C17.2365 7.33328 17.2682 7.61899 17.4905 7.70153C17.6365 7.81582 17.8778 7.9301 18.0238 8.10153C18.0682 8.15867 18.0429 8.25391 18.0936 8.30471C18.2397 8.46344 18.3603 8.74915 18.4936 9.11106C18.7032 9.66344 18.7984 10.0634 18.8302 10.9904C18.8492 11.5491 18.8682 12.1206 18.7667 12.5333C18.6968 12.7999 18.4238 13.1555 18.2968 13.473C18.2016 13.7142 18.1825 13.9492 17.9603 14.146C17.8714 14.2222 17.7254 14.2222 17.6238 14.3491C17.4905 14.5396 17.3254 14.7555 17.154 14.8825C16.9889 15.0158 16.7159 15.0857 16.4809 15.219C16.2714 15.3396 16.0809 15.5365 15.8778 15.619C15.7889 15.6571 15.6048 15.6507 15.4778 15.6888C15.2555 15.7523 14.8365 15.9174 14.4682 15.9555C13.719 16.0317 12.6524 15.8984 12.0555 15.9555C11.6873 15.9872 11.2365 15.9111 10.8492 16.0888" fill="white"/>
<path d="M25.0585 17.6381C25.4395 17.9619 25.3061 18.5842 25.3252 19.181C25.3442 19.8096 25.4331 20.7238 25.1918 21.327C24.8236 21.4223 24.0807 21.4477 23.7188 21.327C23.3633 20.9905 23.522 20.1397 23.3823 19.5873C23.0331 19.327 22.5823 19.5048 22.176 19.5175C21.8077 19.5365 21.4141 19.5175 21.0331 19.5175C20.2268 19.5175 19.0331 19.4667 18.0172 19.5873C17.7379 19.8604 17.8268 20.2858 17.8141 20.7238C17.8077 21.1238 17.8141 21.6191 17.8141 22.0635C17.8141 22.9461 17.795 23.8794 17.8141 24.5461C18.0871 24.8889 18.5633 24.6794 19.0204 24.6794C19.6744 24.6794 20.4299 24.8635 21.0331 24.6794C21.4712 24.8064 22.1887 24.8635 22.8426 24.8826C23.2236 24.8889 23.5982 24.6985 23.8522 24.9461C24.0744 25.308 23.9156 26.0191 23.8522 26.4889C23.2998 26.7619 22.5569 26.6286 21.7061 26.6223C20.5125 26.6223 19.0395 26.5715 17.8839 26.6921C17.6109 27.1175 17.9855 27.8984 17.6807 28.3683C17.9029 29.2381 17.5664 30.1524 17.8141 31.1175C18.0807 31.4096 18.9188 31.1302 19.2871 31.3207C19.5601 31.6318 19.5664 32.6032 19.3569 32.9969C19.0331 33.308 18.5569 33.0921 18.0807 33.0667C17.9347 33.0604 17.9093 33.1302 17.8141 33.1365C17.668 33.1429 17.6363 33.0667 17.5474 33.0667C17.1093 33.0794 16.3855 33.1111 15.8077 33.1365C15.3252 33.1556 14.8363 33.3016 14.468 33.0032C14.2014 32.6032 14.341 31.7461 14.5315 31.3905C14.7791 31.2191 15.2871 31.3016 15.6045 31.1873C16.0426 30.7048 15.8522 30 15.8712 29.3778C15.8966 28.5334 15.8458 27.4794 15.8712 26.4254C15.8712 26.3175 15.9474 26.2096 15.941 26.0889C15.9156 25.7016 15.8839 24.9588 15.8712 24.4127C15.8395 22.9461 15.9029 21.3334 15.8077 19.7842C15.541 19.4477 14.8299 19.5556 14.468 19.3143C14.4045 18.8953 14.3347 18.2413 14.468 17.8413C15.6299 17.4286 17.0585 17.7524 18.2903 17.6381C18.7791 17.5937 19.6553 17.5937 20.3029 17.5683C20.4934 17.5619 20.7029 17.6381 20.9061 17.6381C21.7125 17.6254 23.0141 17.5937 23.8585 17.5683C24.2585 17.5619 24.6776 17.5238 25.0649 17.6381" fill="white"/>
</svg>
